<svg width="153" height="104" viewBox="0 0 153 104" fill="none" xmlns="http://www.w3.org/2000/svg">
<g clip-path="url(#clip0_1048_186)">
<path d="M10.2965 78.3695C9.57001 78.3695 8.842 78.3996 8.13104 78.4604L8.02757 78.4691C3.31176 78.8882 -0.137643 81.3191 0.00422108 84.1239L0.0316467 84.6311C0.0497325 84.9517 0.0690023 85.2964 0.0848633 85.6787C0.0934539 85.8673 0.349475 86.0121 0.668042 86.0121H116.666C124.844 85.9622 132.993 85.8993 140.884 85.8253C142.364 85.8284 143.843 85.7514 145.315 85.5946C147.508 85.3337 149.03 84.8166 149.969 84.0136H149.969C151.136 83.0179 151.173 81.7641 151.103 80.3475C150.959 77.487 150.816 74.4821 150.674 71.4862C150.548 68.8459 150.423 66.2126 150.298 63.6915C150.221 62.1954 150.049 60.8748 148.723 59.8655C147.286 58.774 144.666 58.2207 140.935 58.2207C140.89 58.2207 140.845 58.2207 140.799 58.2209C129.106 58.2627 117.52 62.304 111.969 68.2771C111.33 68.965 110.734 69.7013 110.158 70.4136C109.307 71.4657 108.427 72.5535 107.377 73.5263C106.808 74.0601 106.193 74.5419 105.54 74.9658C105.495 74.9971 105.443 75.0307 105.388 75.0625C105.264 75.1442 105.133 75.2231 105.006 75.2933C104.261 75.7256 103.477 76.0842 102.663 76.364L102.581 76.3917C102.519 76.4139 102.452 76.4361 102.385 76.4564C101.915 76.608 101.427 76.7391 100.938 76.8452C98.8218 77.3139 96.4157 77.4263 93.7867 77.1788C91.3723 76.9455 88.989 76.4574 86.6763 75.7225C84.2418 74.9491 81.963 73.9849 79.7593 73.0525C78.7913 72.6428 77.7901 72.2193 76.7902 71.818C76.6022 71.7424 76.4174 71.6686 76.2297 71.5948C75.0085 71.1164 73.9013 70.7213 72.8449 70.3869C70.2278 69.5552 67.5187 69.0509 64.7789 68.8853C61.8707 68.7252 59.3079 69.0271 57.1635 69.7803C56.5723 69.9872 55.9966 70.2365 55.441 70.5263C52.901 71.8521 51.3352 73.8087 49.821 75.701C47.9375 78.0546 45.9898 80.4886 42.1438 81.7503C37.706 83.2076 31.2282 82.6022 26.6452 81.5493C25.2043 81.2182 23.7652 80.8374 22.3733 80.469C21.8112 80.3201 21.2487 80.1723 20.6858 80.0255C19.5796 79.7385 18.6743 79.5185 17.8368 79.3328L17.5718 79.2736C17.4245 79.2415 17.277 79.2093 17.1268 79.1786C16.132 78.9687 15.2056 78.8035 14.2934 78.6736L14.0775 78.6419C13.6448 78.5846 13.2403 78.5369 12.8433 78.4968L12.6848 78.481C11.9073 78.4067 11.1027 78.3695 10.2965 78.3695Z" fill="#F2F2F2"/>
<path d="M130.244 81.4994C133.508 78.5431 138.363 77.0567 142.436 78.7143C138.258 81.0455 135.036 84.7866 133.339 89.2759C132.69 91.0096 132.149 93.0057 130.554 93.9339C129.562 94.5114 128.328 94.5397 127.215 94.2609C126.103 93.982 125.083 93.4231 124.077 92.8698L123.791 92.8633C125.076 88.6401 126.98 84.4558 130.244 81.4994Z" fill="#E6E6E6"/>
<path d="M142.412 78.805C138.805 79.2734 135.437 80.8723 132.786 83.3744C132.206 83.9028 131.712 84.5199 131.323 85.2029C130.965 85.8805 130.795 86.6421 130.829 87.4084C130.846 88.1235 130.947 88.853 130.791 89.56C130.706 89.9207 130.546 90.2593 130.322 90.5535C130.098 90.8477 129.814 91.091 129.49 91.2673C128.693 91.7277 127.779 91.8729 126.88 91.9836C125.882 92.1066 124.843 92.2184 123.98 92.781C123.875 92.8491 123.776 92.6819 123.88 92.6138C125.383 91.635 127.285 91.9912 128.901 91.3379C129.655 91.0331 130.322 90.498 130.558 89.689C130.765 88.9816 130.662 88.2293 130.638 87.5053C130.594 86.7583 130.732 86.0117 131.041 85.3308C131.394 84.6301 131.864 83.9949 132.429 83.4524C133.682 82.2108 135.122 81.1749 136.695 80.3828C138.485 79.4687 140.418 78.8692 142.41 78.6103C142.533 78.5943 142.534 78.7891 142.412 78.805H142.412Z" fill="white"/>
<path d="M133.595 82.5181C133.238 82.014 133.07 81.3987 133.123 80.782C133.175 80.1654 133.444 79.5875 133.881 79.1517C133.97 79.0638 134.11 79.1983 134.021 79.2863C133.613 79.6914 133.363 80.2297 133.315 80.804C133.268 81.3784 133.426 81.9509 133.761 82.4183C133.834 82.52 133.667 82.6192 133.595 82.5181V82.5181Z" fill="white"/>
<path d="M130.775 87.046C132.015 87.2667 133.291 87.0098 134.351 86.3264C134.456 86.2586 134.555 86.4258 134.45 86.4935C133.346 87.2026 132.017 87.4672 130.728 87.2347C130.605 87.2125 130.653 87.0239 130.775 87.046Z" fill="white"/>
<path d="M138.503 79.7269C138.601 79.9509 138.752 80.147 138.944 80.2975C139.136 80.4481 139.362 80.5484 139.602 80.5894C139.725 80.6101 139.677 80.7987 139.555 80.7781C139.29 80.7316 139.04 80.6205 138.828 80.4546C138.616 80.2888 138.447 80.0732 138.337 79.8267C138.324 79.8044 138.321 79.7781 138.327 79.7533C138.333 79.7285 138.349 79.7071 138.37 79.6933C138.392 79.6802 138.419 79.6764 138.444 79.6827C138.468 79.689 138.49 79.7049 138.503 79.7269Z" fill="white"/>
<path d="M146.92 92.9713C146.843 92.9606 146.766 92.9499 146.687 92.9404C145.648 92.8018 144.6 92.7483 143.552 92.7803C143.471 92.7815 143.389 92.7839 143.308 92.7875C140.785 92.8917 138.303 93.466 135.989 94.4809C135.068 94.8856 134.179 95.3602 133.33 95.9004C132.158 96.6466 130.946 97.5494 129.635 97.8537C129.499 97.887 129.36 97.9118 129.221 97.9279L123.805 93.2149C123.798 93.198 123.79 93.1822 123.783 93.1653L123.559 92.987C123.6 92.9561 123.645 92.9249 123.686 92.894C123.711 92.8759 123.736 92.8589 123.76 92.8409C123.777 92.8292 123.793 92.8175 123.808 92.806C123.813 92.8021 123.819 92.7982 123.823 92.7956C123.837 92.7841 123.852 92.7749 123.865 92.7646C124.111 92.5896 124.358 92.4161 124.607 92.244C124.608 92.2427 124.608 92.2427 124.611 92.2425C126.497 90.9128 128.533 89.8126 130.677 88.965C130.741 88.9406 130.806 88.9149 130.873 88.8926C131.839 88.5318 132.832 88.2509 133.843 88.0527C134.397 87.9459 134.956 87.8675 135.518 87.8175C136.97 87.6914 138.432 87.7955 139.852 88.1262C142.682 88.7858 145.271 90.3479 146.805 92.7841C146.844 92.8464 146.882 92.9077 146.92 92.9713Z" fill="#E6E6E6"/>
<path d="M146.85 93.0304C143.69 91.2219 140.043 90.4602 136.427 90.8536C135.647 90.9244 134.883 91.1183 134.164 91.4282C133.472 91.7528 132.88 92.2576 132.448 92.8902C132.034 93.4719 131.677 94.1151 131.129 94.5854C130.845 94.822 130.515 94.9955 130.159 95.0947C129.804 95.1939 129.432 95.2164 129.067 95.1609C128.155 95.0462 127.338 94.609 126.554 94.1535C125.684 93.6478 124.788 93.1086 123.761 93.0351C123.637 93.0262 123.658 92.8327 123.782 92.8416C125.568 92.9695 126.873 94.4048 128.555 94.8611C129.34 95.074 130.193 95.0506 130.866 94.5476C131.455 94.1077 131.823 93.4447 132.238 92.8521C132.65 92.2288 133.207 91.7165 133.862 91.3598C134.564 91.014 135.319 90.7909 136.095 90.6998C137.839 90.4668 139.609 90.5109 141.34 90.8305C143.317 91.1842 145.22 91.8754 146.965 92.8739C147.073 92.9358 146.957 93.0919 146.85 93.0304V93.0304Z" fill="white"/>
<path d="M137.582 90.6583C137.599 90.0396 137.834 89.447 138.245 88.9864C138.656 88.5257 139.217 88.227 139.827 88.1436C139.951 88.1271 139.982 88.3193 139.858 88.3357C139.29 88.4124 138.768 88.6907 138.385 89.1204C138.003 89.5502 137.787 90.1031 137.775 90.6793C137.772 90.8045 137.579 90.7828 137.582 90.6583V90.6583Z" fill="white"/>
<path d="M132.619 92.5677C133.477 93.494 134.65 94.0614 135.905 94.1568C136.029 94.1662 136.008 94.3597 135.884 94.3504C134.578 94.2486 133.358 93.6556 132.468 92.6897C132.384 92.5976 132.535 92.4761 132.619 92.5677H132.619Z" fill="white"/>
<path d="M143.175 91.3985C143.119 91.6366 143.122 91.8849 143.185 92.1212C143.248 92.3574 143.369 92.5743 143.536 92.7523C143.622 92.8433 143.47 92.9647 143.385 92.8743C143.201 92.6768 143.069 92.4371 142.998 92.1762C142.928 91.9153 142.923 91.6411 142.982 91.3776C142.986 91.3523 142.999 91.3293 143.019 91.3132C143.039 91.2972 143.064 91.2894 143.089 91.2913C143.114 91.2942 143.138 91.3071 143.154 91.3272C143.17 91.3473 143.177 91.3729 143.175 91.3985Z" fill="white"/>
<path d="M44.7998 84.4405C47.4725 80.366 52.2534 77.4186 57.0677 78.0528C53.2452 81.7141 50.8342 86.6165 50.2615 91.8924C50.048 93.928 50.0214 96.2143 48.5728 97.6529C47.6715 98.5481 46.3591 98.9235 45.0921 98.9363C43.825 98.9492 42.5797 98.6366 41.3508 98.326L41.043 98.3991C41.2481 93.523 42.1272 88.5151 44.7998 84.4405Z" fill="#E6E6E6"/>
<path d="M57.07 78.1543C53.3422 79.6639 50.1824 82.3157 48.0394 85.7331C47.565 86.4606 47.2077 87.2586 46.9806 88.0979C46.7857 88.9227 46.8141 89.7849 47.0628 90.5949C47.2796 91.3548 47.5889 92.1069 47.6181 92.9066C47.627 93.3162 47.5497 93.723 47.3912 94.1004C47.2327 94.4778 46.9967 94.8173 46.6985 95.0966C45.9735 95.8119 45.0361 96.2227 44.1055 96.5925C43.0722 97.003 41.9925 97.413 41.2244 98.2562C41.1313 98.3584 40.979 98.2073 41.0719 98.1053C42.4084 96.6381 44.5409 96.4873 46.0885 95.3367C46.8106 94.7998 47.3761 94.041 47.4048 93.1097C47.4299 92.2953 47.1116 91.5195 46.8855 90.7519C46.6313 89.9653 46.5727 89.1281 46.7147 88.3135C46.8985 87.4653 47.2246 86.6547 47.679 85.9165C48.6756 84.2381 49.9286 82.7277 51.3921 81.4405C53.0542 79.9621 54.9557 78.7805 57.0142 77.9466C57.1416 77.8951 57.1966 78.1031 57.07 78.1543L57.07 78.1543Z" fill="white"/>
<path d="M48.6652 84.5932C48.1436 84.1539 47.7943 83.5427 47.6797 82.8685C47.5651 82.1942 47.6926 81.501 48.0395 80.9126C48.1101 80.7938 48.2972 80.8985 48.2265 81.0175C47.9024 81.5648 47.7836 82.2105 47.8916 82.8381C47.9996 83.4657 48.3273 84.0339 48.8154 84.44C48.9214 84.5283 48.7706 84.681 48.6652 84.5932Z" fill="white"/>
<path d="M46.9029 90.2251C48.2896 90.1145 49.5839 89.4828 50.5277 88.4557C50.6212 88.3539 50.7735 88.5049 50.6802 88.6067C49.696 89.6736 48.3477 90.3283 46.9045 90.4402C46.7669 90.4507 46.7661 90.2356 46.9029 90.2251H46.9029Z" fill="white"/>
<path d="M53.1416 80.2338C53.3082 80.4461 53.5246 80.6134 53.7715 80.7207C54.0183 80.8281 54.2878 80.8722 54.5557 80.849C54.6931 80.8367 54.6938 81.0519 54.5573 81.0641C54.2612 81.0883 53.9636 81.0393 53.6906 80.9213C53.4177 80.8033 53.1776 80.6198 52.9914 80.3871C52.972 80.3666 52.9611 80.3395 52.9609 80.3112C52.9607 80.283 52.9712 80.2557 52.9903 80.235C53.0103 80.2148 53.0374 80.2033 53.0657 80.2031C53.0941 80.2029 53.1213 80.214 53.1416 80.2338H53.1416Z" fill="white"/>
<path d="M65.8115 92.047C65.7259 92.0571 65.6404 92.0673 65.5539 92.079C64.4043 92.2213 63.2682 92.4572 62.1566 92.7844C62.0702 92.8084 61.9831 92.8339 61.8976 92.8603C59.228 93.6774 56.7324 94.9855 54.5378 96.7183C53.6652 97.4086 52.8461 98.1646 52.0876 98.9798C51.0401 100.106 49.9935 101.41 48.6759 102.102C48.5392 102.176 48.3982 102.241 48.2535 102.297L41.1572 98.7709C41.145 98.7548 41.132 98.7402 41.1198 98.724L40.8301 98.5962C40.8663 98.5514 40.9048 98.5058 40.941 98.461C40.9619 98.4349 40.9843 98.4096 41.0052 98.3836C41.0197 98.3664 41.0342 98.3493 41.0462 98.333C41.051 98.3273 41.0559 98.3216 41.0598 98.3175C41.0719 98.3012 41.0848 98.2874 41.096 98.2727C41.3105 98.0168 41.5272 97.762 41.7461 97.5083C41.7469 97.5066 41.7469 97.5066 41.7492 97.5058C43.4216 95.5766 45.2688 93.7707 47.3301 92.3041C47.3921 92.26 47.4549 92.2142 47.5201 92.1717C48.4529 91.5158 49.4374 90.9377 50.4639 90.443C51.0268 90.1739 51.6029 89.9337 52.19 89.7232C53.708 89.1822 55.3013 88.8846 56.9113 88.8413C60.1209 88.7554 63.3221 89.7022 65.6363 91.8789C65.6955 91.9347 65.7531 91.9896 65.8115 92.047Z" fill="#E6E6E6"/>
<path d="M65.7509 92.13C61.8702 91.0794 57.7588 91.2845 54.0007 92.7163C53.1862 93.0101 52.4229 93.431 51.7389 93.9637C51.0892 94.5043 50.5954 95.2099 50.3088 96.0071C50.0267 96.7451 49.8231 97.5328 49.3675 98.189C49.1292 98.5214 48.8238 98.7994 48.4712 99.0048C48.1186 99.2103 47.7268 99.3385 47.3214 99.381C46.3141 99.5135 45.3195 99.2742 44.355 99.0063C43.2841 98.7088 42.1764 98.3827 41.058 98.5912C40.9225 98.6164 40.8914 98.4036 41.0267 98.3784C42.9726 98.0157 44.7657 99.1858 46.6905 99.2036C47.5887 99.212 48.4948 98.9483 49.0755 98.2221C49.5833 97.587 49.7939 96.7749 50.0731 96.0252C50.3414 95.2434 50.796 94.5394 51.3974 93.9749C52.0522 93.4089 52.7981 92.9591 53.6032 92.6446C55.4043 91.9077 57.3095 91.4599 59.249 91.3178C61.4616 91.1432 63.6876 91.3504 65.8307 91.9304C65.9634 91.9663 65.8826 92.1657 65.7509 92.13Z" fill="white"/>
<path d="M55.1852 92.1835C55.0318 91.5171 55.119 90.8176 55.4314 90.21C55.7437 89.6023 56.2608 89.126 56.8902 88.8661C57.0178 88.814 57.1044 89.0108 56.9767 89.063C56.3901 89.3039 55.9085 89.7476 55.6188 90.314C55.3291 90.8805 55.2504 91.5324 55.3969 92.1521C55.4286 92.2868 55.2167 92.3174 55.1852 92.1835H55.1852Z" fill="white"/>
<path d="M50.4038 95.613C51.5772 96.3639 52.9891 96.6427 54.3579 96.3938C54.4935 96.3691 54.5246 96.5819 54.3892 96.6066C52.9642 96.863 51.4956 96.5698 50.2762 95.7857C50.16 95.7109 50.2883 95.5386 50.4038 95.613V95.613Z" fill="white"/>
<path d="M61.3687 91.4121C61.3746 91.6823 61.4472 91.9469 61.5799 92.182C61.7127 92.4171 61.9015 92.6154 62.1293 92.759C62.2464 92.8323 62.118 93.0045 62.0017 92.9317C61.7507 92.7718 61.5425 92.5526 61.3953 92.2932C61.248 92.0337 61.1662 91.742 61.157 91.4435C61.1538 91.4154 61.1613 91.3872 61.1781 91.3645C61.1948 91.3418 61.2195 91.3264 61.2472 91.3214C61.2752 91.3174 61.3037 91.3246 61.3265 91.3416C61.3492 91.3586 61.3644 91.3839 61.3687 91.4121V91.4121Z" fill="white"/>
<path d="M63.8226 53.8918C63.9999 53.7145 64.1364 53.5002 64.2225 53.2641C64.3085 53.028 64.342 52.7758 64.3206 52.5253C64.2991 52.2748 64.2233 52.0321 64.0985 51.8142C63.9736 51.5963 63.8027 51.4086 63.5979 51.2642L66.3911 37.6768L63.3776 38.6323L61.1303 51.7771C60.9119 52.1391 60.8331 52.569 60.909 52.9854C60.9849 53.4018 61.2101 53.7758 61.5419 54.0364C61.8738 54.2971 62.2893 54.4264 62.7096 54.3997C63.1299 54.3731 63.5259 54.1924 63.8226 53.8918Z" fill="#FFB6B6"/>
<path d="M70.2793 17.5722L68.4126 16.1559C68.4126 16.1559 66.7659 16.0387 66.4742 19.0236C66.1826 22.0085 64.3565 33.4646 64.3565 33.4646L61.5 46.7624L65.4541 47.6348L68.5136 33.2841L71.5762 23.3835L70.2793 17.5722Z" fill="#E6E6E6"/>
<path d="M68.8562 42.1776L59.9018 35.1794C59.7623 35.0702 59.6717 34.9098 59.6497 34.7334C59.6277 34.557 59.6763 34.3791 59.7847 34.2387L65.8772 26.3631C65.9859 26.2229 66.1454 26.1318 66.3209 26.1097C66.4964 26.0876 66.6734 26.1364 66.8131 26.2453L75.7675 33.2435C75.9069 33.3528 75.9976 33.5132 76.0196 33.6896C76.0415 33.8659 75.993 34.0438 75.8846 34.1843L69.7921 42.0599C69.6834 42.2001 69.5238 42.2912 69.3484 42.3133C69.1729 42.3353 68.9959 42.2866 68.8562 42.1776Z" fill="#3F3D56"/>
<path d="M68.808 41.4537L60.6132 35.0492C60.4893 34.9522 60.4089 34.8098 60.3894 34.6532C60.3699 34.4966 60.413 34.3386 60.5092 34.2139L66.0323 27.0743C66.1288 26.9498 66.2705 26.8689 66.4263 26.8493C66.5821 26.8297 66.7392 26.8731 66.8633 26.9698L75.0581 33.3743C75.1819 33.4713 75.2624 33.6138 75.2819 33.7703C75.3014 33.9269 75.2583 34.0849 75.1621 34.2096L69.639 41.3492C69.5425 41.4737 69.4008 41.5546 69.245 41.5742C69.0892 41.5938 68.932 41.5505 68.808 41.4537Z" fill="white"/>
<path d="M61.6879 34.867C61.657 34.8428 61.6369 34.8072 61.632 34.768C61.6271 34.7289 61.6379 34.6894 61.662 34.6582L64.4482 31.0565C64.4723 31.0253 64.5077 31.0051 64.5467 31.0002C64.566 30.9977 64.5856 30.9992 64.6043 31.0043C64.623 31.0095 64.6406 31.0184 64.6559 31.0304C64.6713 31.0423 64.6841 31.0573 64.6937 31.0742C64.7034 31.0912 64.7095 31.11 64.712 31.1293C64.7144 31.1487 64.713 31.1684 64.7078 31.1872C64.7027 31.2061 64.6939 31.2237 64.6819 31.2392L61.8957 34.8409C61.8716 34.872 61.8361 34.8922 61.7972 34.8971C61.7583 34.902 61.719 34.8912 61.6879 34.867Z" fill="#E4E4E4"/>
<path d="M62.1489 35.2284C62.1179 35.2041 62.0978 35.1685 62.0929 35.1294C62.0881 35.0902 62.0988 35.0507 62.1229 35.0195L64.9091 31.4178C64.9332 31.3867 64.9687 31.3664 65.0076 31.3615C65.0466 31.3566 65.0859 31.3675 65.1169 31.3917C65.1479 31.4159 65.168 31.4515 65.1729 31.4907C65.1778 31.5298 65.167 31.5693 65.1429 31.6005L62.3566 35.2022C62.3325 35.2333 62.2971 35.2536 62.2582 35.2585C62.2192 35.2634 62.1799 35.2525 62.1489 35.2284Z" fill="#E4E4E4"/>
<path d="M64.188 33.5494C64.157 33.5252 64.1369 33.4896 64.132 33.4504C64.1271 33.4113 64.1379 33.3718 64.162 33.3406L65.3697 31.7793C65.3817 31.7639 65.3965 31.7509 65.4134 31.7412C65.4303 31.7315 65.449 31.7253 65.4683 31.7228C65.4876 31.7204 65.5072 31.7218 65.5259 31.727C65.5447 31.7322 65.5623 31.741 65.5777 31.753C65.593 31.765 65.6059 31.78 65.6155 31.797C65.6251 31.814 65.6313 31.8327 65.6337 31.8521C65.6361 31.8715 65.6347 31.8912 65.6295 31.9101C65.6243 31.9289 65.6155 31.9466 65.6035 31.962L64.3957 33.5233C64.3716 33.5544 64.3362 33.5746 64.2972 33.5795C64.2583 33.5844 64.219 33.5736 64.188 33.5494Z" fill="#E4E4E4"/>
<path d="M64.813 36.6124C64.782 36.5882 64.7619 36.5526 64.757 36.5134C64.7521 36.4743 64.7629 36.4348 64.787 36.4036L69.1856 30.7176C69.1975 30.7022 69.2124 30.6893 69.2293 30.6796C69.2462 30.67 69.2648 30.6637 69.2841 30.6613C69.3034 30.6589 69.323 30.6603 69.3417 30.6655C69.3604 30.6707 69.378 30.6795 69.3933 30.6915C69.4087 30.7035 69.4215 30.7184 69.4311 30.7354C69.4408 30.7524 69.4469 30.7711 69.4494 30.7905C69.4518 30.8099 69.4504 30.8295 69.4452 30.8484C69.4401 30.8672 69.4313 30.8849 69.4193 30.9003L65.0207 36.5863C64.9966 36.6174 64.9611 36.6376 64.9222 36.6425C64.8833 36.6474 64.844 36.6366 64.813 36.6124Z" fill="#E4E4E4"/>
<path d="M65.2739 36.9738C65.2429 36.9495 65.2228 36.9139 65.2179 36.8748C65.2131 36.8356 65.2238 36.7961 65.2479 36.765L69.6465 31.0789C69.6585 31.0635 69.6733 31.0506 69.6902 31.0409C69.7071 31.0313 69.7257 31.0251 69.745 31.0226C69.7643 31.0202 69.7839 31.0216 69.8026 31.0268C69.8214 31.032 69.8389 31.0408 69.8543 31.0528C69.8696 31.0648 69.8825 31.0797 69.8921 31.0967C69.9017 31.1137 69.9079 31.1324 69.9103 31.1518C69.9127 31.1712 69.9113 31.1909 69.9061 31.2097C69.901 31.2286 69.8922 31.2462 69.8803 31.2616L65.4816 36.9476C65.4575 36.9788 65.4221 36.999 65.3832 37.0039C65.3442 37.0088 65.3049 36.998 65.2739 36.9738Z" fill="#E4E4E4"/>
<path d="M66.3208 37.7931C66.2898 37.7688 66.2697 37.7332 66.2648 37.6941C66.2599 37.655 66.2707 37.6155 66.2948 37.5843L70.6934 31.8983C70.7053 31.8829 70.7202 31.8699 70.7371 31.8603C70.754 31.8506 70.7726 31.8444 70.7919 31.842C70.8112 31.8395 70.8308 31.841 70.8495 31.8461C70.8683 31.8513 70.8858 31.8602 70.9011 31.8722C70.9165 31.8841 70.9293 31.8991 70.9389 31.916C70.9486 31.933 70.9548 31.9518 70.9572 31.9711C70.9596 31.9905 70.9582 32.0102 70.953 32.029C70.9479 32.0479 70.9391 32.0655 70.9271 32.0809L66.5285 37.767C66.5044 37.7981 66.469 37.8183 66.43 37.8232C66.3911 37.8281 66.3518 37.8173 66.3208 37.7931Z" fill="#E4E4E4"/>
<path d="M66.7837 38.1544C66.7527 38.1302 66.7326 38.0946 66.7277 38.0554C66.7228 38.0163 66.7336 37.9768 66.7577 37.9456L71.1563 32.2596C71.1682 32.2442 71.1831 32.2313 71.2 32.2216C71.2169 32.2119 71.2355 32.2057 71.2548 32.2033C71.2741 32.2009 71.2937 32.2023 71.3124 32.2075C71.3312 32.2126 71.3487 32.2215 71.364 32.2335C71.3794 32.2455 71.3922 32.2604 71.4019 32.2774C71.4115 32.2944 71.4177 32.3131 71.4201 32.3325C71.4225 32.3519 71.4211 32.3715 71.4159 32.3904C71.4108 32.4092 71.402 32.4269 71.39 32.4423L66.9914 38.1283C66.9673 38.1594 66.9319 38.1796 66.8929 38.1845C66.854 38.1894 66.8147 38.1786 66.7837 38.1544Z" fill="#E4E4E4"/>
<path d="M67.8305 38.9738C67.7996 38.9495 67.7795 38.9139 67.7746 38.8748C67.7697 38.8356 67.7805 38.7961 67.8045 38.765L72.2032 33.0789C72.2151 33.0635 72.2299 33.0506 72.2468 33.0409C72.2637 33.0313 72.2824 33.0251 72.3017 33.0226C72.321 33.0202 72.3405 33.0216 72.3593 33.0268C72.378 33.032 72.3956 33.0408 72.4109 33.0528C72.4263 33.0648 72.4391 33.0797 72.4487 33.0967C72.4583 33.1137 72.4645 33.1324 72.4669 33.1518C72.4693 33.1712 72.4679 33.1909 72.4628 33.2097C72.4576 33.2286 72.4488 33.2462 72.4369 33.2616L68.0383 38.9476C68.0142 38.9787 67.9787 38.999 67.9398 39.0039C67.9008 39.0088 67.8616 38.9979 67.8305 38.9738Z" fill="#E4E4E4"/>
<path d="M68.2934 39.3337C68.2625 39.3095 68.2423 39.2739 68.2375 39.2347C68.2326 39.1956 68.2434 39.1561 68.2674 39.1249L72.6661 33.4389C72.6902 33.4079 72.7256 33.3878 72.7645 33.383C72.8034 33.3781 72.8426 33.389 72.8735 33.4132C72.9044 33.4373 72.9246 33.4729 72.9295 33.5119C72.9344 33.551 72.9238 33.5904 72.8998 33.6216L68.5012 39.3076C68.4771 39.3387 68.4416 39.359 68.4027 39.3638C68.3637 39.3687 68.3245 39.3579 68.2934 39.3337Z" fill="#E4E4E4"/>
<path d="M60.9436 45.9376C60.9772 45.9376 61.0044 45.9103 61.0044 45.8765C61.0044 45.8428 60.9772 45.8154 60.9436 45.8154C60.91 45.8154 60.8828 45.8428 60.8828 45.8765C60.8828 45.9103 60.91 45.9376 60.9436 45.9376Z" fill="white"/>
<path d="M69.7999 3.84088C69.5861 4.99541 69.2355 6.12006 68.7557 7.1908C66.0078 13.0336 73.8331 11.1291 76.6296 11.1291C79.6872 11.1291 82.6126 12.7452 82.1658 5.56456C81.9749 2.49733 79.6871 0 76.6296 0C74.0179 0 70.346 1.16678 69.7999 3.84088Z" fill="#2F2E41"/>
<path d="M79.4775 89.5331H76.8725L75.6328 79.4336H79.4775V89.5331Z" fill="#FFB6B6"/>
<path d="M80.8529 94.07H78.9847L78.6513 92.2972L77.7972 94.07H72.8424C72.6049 94.07 72.3736 93.9937 72.1823 93.8522C71.991 93.7108 71.8497 93.5115 71.779 93.2836C71.7083 93.0557 71.712 92.8111 71.7894 92.5854C71.8669 92.3597 72.014 92.1648 72.2095 92.0292L76.1663 89.2825V87.4902L80.3281 87.7399L80.8529 94.07Z" fill="#2F2E41"/>
<path d="M94.9559 86.2294L92.8654 87.7919L85.875 80.4311L88.9602 78.125L94.9559 86.2294Z" fill="#FFB6B6"/>
<path d="M98.7515 89.0441L97.2523 90.1646L95.9323 88.942L96.2994 90.8768L92.3234 93.8486C92.1328 93.9911 91.9019 94.0686 91.6644 94.0698C91.4269 94.071 91.1952 93.9959 91.0032 93.8554C90.8112 93.7149 90.6689 93.5164 90.5971 93.2889C90.5253 93.0613 90.5277 92.8167 90.604 92.5906L92.1485 88.0133L91.0845 86.5751L94.5724 84.2793L98.7515 89.0441Z" fill="#2F2E41"/>
<path d="M70.9473 43.0526L83.3133 41.1167L80.8541 33.6807H70.9473V43.0526Z" fill="#FFB6B6"/>
<path d="M82.5116 37.4258C82.5116 37.4258 87.4543 41.7179 85.1738 53.9537L82.3897 65.9427L89.975 79.1794L86.118 81.2941L76.7704 68.2355L72.493 58.1506L70.2305 40.4757L82.5116 37.4258Z" fill="#2F2E41"/>
<path d="M74.852 61.0244L74.5547 65.6521L75.425 79.3556L79.7455 80.8508L80.5637 66.8101L74.852 61.0244Z" fill="#2F2E41"/>
<path d="M73.5226 12.6689L78.3026 12.8564L80.2077 16.0349L84.5541 16.8878L81.9594 30.0816L82.4366 37.5915L78.1087 37.5649C74.9896 37.5458 71.9733 38.6848 69.6383 40.7634L69.7678 31.0151L67.9062 23.738L68.3246 16.1076L71.8212 15.6683L73.5226 12.6689Z" fill="#E6E6E6"/>
<path d="M76.1687 11.1277C78.6533 11.1277 80.6675 9.10316 80.6675 6.60582C80.6675 4.10848 78.6533 2.08398 76.1687 2.08398C73.6841 2.08398 71.6699 4.10848 71.6699 6.60582C71.6699 9.10316 73.6841 11.1277 76.1687 11.1277Z" fill="#FFB6B6"/>
<path d="M73.1149 1.9963C73.9032 1.51325 74.8062 1.25194 75.7294 1.23971C76.6526 1.22747 77.5621 1.46476 78.3628 1.92676C79.1635 2.38876 79.826 3.0585 80.2811 3.86595C80.7362 4.6734 80.967 5.58891 80.9496 6.51674C78.6572 7.09523 76.249 7.53794 73.8043 6.65511L73.227 5.23493L72.8866 6.65616C72.1422 6.96202 71.3958 7.2208 70.6494 6.65321C70.6189 5.72799 70.8306 4.81094 71.2632 3.99372C71.6959 3.1765 72.3344 2.48775 73.1149 1.9963Z" fill="#2F2E41"/>
<path d="M83.7211 46.7079L84.3275 52.2398C84.3698 52.3778 84.4549 52.4986 84.5705 52.5844C84.6861 52.6702 84.826 52.7165 84.9696 52.7165H87.7651C87.9088 52.7165 88.0487 52.6702 88.1643 52.5844C88.2799 52.4986 88.365 52.3778 88.4073 52.2398L88.9096 47.9998C89.0546 48.0713 89.2144 48.1071 89.3758 48.1044C89.5373 48.1017 89.6958 48.0605 89.8383 47.9842C89.9808 47.9079 90.1033 47.7987 90.1957 47.6656C90.288 47.5324 90.3476 47.3791 90.3695 47.2183C90.3915 47.0575 90.3751 46.8938 90.3218 46.7406C90.2685 46.5874 90.1798 46.4491 90.0629 46.3371C89.9461 46.225 89.8045 46.1425 89.6497 46.0962C89.4949 46.0499 89.3314 46.0412 89.1727 46.0708C89.11 45.9964 89.0319 45.9367 88.9439 45.8957C88.8558 45.8548 88.76 45.8338 88.663 45.834H84.3633C84.2581 45.834 84.1545 45.8588 84.0606 45.9064C83.9667 45.954 83.8853 46.0231 83.8228 46.1081C83.7604 46.1931 83.7186 46.2916 83.701 46.3958C83.6833 46.5 83.6902 46.6069 83.7211 46.7079ZM88.9974 47.7131L89.3051 46.7079C89.3407 46.5919 89.3442 46.4683 89.3152 46.3504C89.3284 46.3497 89.3408 46.3465 89.3541 46.3465C89.5473 46.3465 89.7325 46.4236 89.8691 46.561C90.0058 46.6983 90.0825 46.8845 90.0825 47.0787C90.0825 47.2729 90.0058 47.4591 89.8691 47.5964C89.7325 47.7337 89.5473 47.8109 89.3541 47.8109C89.2287 47.8101 89.1058 47.7764 88.9974 47.7131Z" fill="#66B8CF"/>
<path d="M87.9377 52.7202C87.7612 52.5419 87.6258 52.327 87.541 52.0904C87.4561 51.8539 87.4239 51.6016 87.4466 51.3511C87.4693 51.1007 87.5463 50.8584 87.6723 50.6411C87.7982 50.4239 87.9701 50.2371 88.1756 50.0938L85.4512 36.4922L88.4598 37.4631L90.6406 50.6193C90.8572 50.9823 90.9337 51.4126 90.8558 51.8287C90.7778 52.2447 90.5507 52.6175 90.2175 52.8764C89.8844 53.1354 89.4683 53.2625 89.0481 53.2337C88.6279 53.2049 88.2328 53.0222 87.9377 52.7202Z" fill="#FFB6B6"/>
<path d="M82.6875 18.3046L84.5542 16.8883C84.5542 16.8883 86.201 16.7711 86.4926 19.756C86.7843 22.741 88.6104 34.197 88.6104 34.197L91.4669 47.4949L87.5127 48.3672L84.4532 34.0165L81.3906 24.116L82.6875 18.3046Z" fill="#E6E6E6"/>
<path d="M66.5762 30.6858C67.1598 30.6858 67.6329 30.2102 67.6329 29.6236C67.6329 29.037 67.1598 28.5615 66.5762 28.5615C65.9926 28.5615 65.5195 29.037 65.5195 29.6236C65.5195 30.2102 65.9926 30.6858 66.5762 30.6858Z" fill="#66B8CF"/>
<path d="M32.8793 101.854L35.0814 101.854L36.1291 93.3164L32.8789 93.3166L32.8793 101.854Z" fill="#FFB6B6"/>
<path d="M32.3184 101.132L32.9382 101.132L35.3582 100.143L36.6552 101.132H36.6554C37.3884 101.132 38.0913 101.424 38.6096 101.945C39.1279 102.466 39.4191 103.173 39.4192 103.91V104L32.3185 104L32.3184 101.132Z" fill="#2F2E41"/>
<path d="M41.4141 100.46L43.5622 100.947L46.4552 92.8513L43.2847 92.1318L41.4141 100.46Z" fill="#FFB6B6"/>
<path d="M41.0249 99.6307L41.6296 99.768L44.2069 99.3389L45.2553 100.591L45.2555 100.591C45.9704 100.753 46.592 101.194 46.9834 101.817C47.3748 102.44 47.504 103.194 47.3426 103.912L47.3228 104L40.3965 102.429L41.0249 99.6307Z" fill="#2F2E41"/>
<path d="M28.8496 57.9382L30.841 80.3636C30.841 80.3636 30.0948 93.8267 32.5025 98.5643H35.9943L37.7231 79.1341L37.9402 66.0924L45.4262 77.0952L40.6581 98.2466L44.9557 98.6328L52.6929 75.6785L44.1925 54.1299L28.8496 57.9382Z" fill="#2F2E41"/>
<path d="M30.9344 22.2272C33.7707 22.2272 36.07 19.9161 36.07 17.0652C36.07 14.2144 33.7707 11.9033 30.9344 11.9033C28.0981 11.9033 25.7988 14.2144 25.7988 17.0652C25.7988 19.9161 28.0981 22.2272 30.9344 22.2272Z" fill="#FFB8B8"/>
<path d="M39.9625 27.1462L35.7493 25.3292L33.6983 23.1426L28.5746 23.9732L27.2151 26.316L22.8145 30.429L27.9704 53.8611L27.8143 58.9789C27.8143 58.9789 31.1142 60.4721 45.4255 57.0342C45.5971 56.9929 45.2378 56.8124 45.2378 56.8124L39.9625 27.1462Z" fill="#3F3D56"/>
<path d="M25.5951 19.9932C25.5593 19.9441 25.5238 19.8946 25.4887 19.8447C25.4746 19.8747 25.4634 19.9057 25.4473 19.9349L25.5951 19.9932Z" fill="#2F2E41"/>
<path d="M36.0426 13.2887C35.6993 12.5371 35.0873 11.9427 34.328 11.6238C33.5755 11.3188 32.7345 11.3195 31.9825 11.6259C31.3035 11.1947 30.5492 10.8529 29.7547 10.8106C28.9603 10.7683 28.1203 11.0645 27.6307 11.7166C27.5214 11.8888 27.3972 12.0509 27.2596 12.2012C26.8661 12.5675 26.268 12.5147 25.7449 12.4398C25.9796 12.6419 26.2142 12.844 26.449 13.0461C26.165 13.1207 25.8809 13.1952 25.5969 13.2698C25.9283 13.4719 26.2598 13.6739 26.5911 13.876C25.629 14.4564 25.1917 15.7233 25.3072 16.874C25.4165 17.9634 25.9397 18.9595 26.5653 19.845C26.8148 19.3157 26.761 18.6824 26.7569 18.0863C26.7526 17.4564 26.8635 16.7412 27.3656 16.3892C27.7043 16.1518 28.1399 16.1412 28.5483 16.1434C30.6086 16.1548 32.6666 16.2839 34.7124 16.5302C34.99 16.5423 35.2606 16.6212 35.5016 16.7603C35.9539 17.0705 36.0421 17.7107 36.0875 18.2723C36.3265 17.345 36.4435 16.3901 36.4355 15.4322C36.4556 14.6979 36.3217 13.9676 36.0426 13.2887Z" fill="#2F2E41"/>
<path d="M37.6417 73.6592C42.1058 73.6592 45.7248 70.0217 45.7248 65.5347C45.7248 61.0476 42.1058 57.4102 37.6417 57.4102C33.1775 57.4102 29.5586 61.0476 29.5586 65.5347C29.5586 70.0217 33.1775 73.6592 37.6417 73.6592Z" fill="white"/>
<path d="M37.6416 57.2295C37.2261 57.2295 36.8112 57.2609 36.4004 57.3234C36.1902 57.3541 35.9855 57.3938 35.7825 57.4425C34.2913 57.788 32.9249 58.5432 31.8359 59.6237C30.7468 60.7042 29.9778 62.0677 29.6147 63.5619C29.2516 65.0561 29.3088 66.6223 29.7797 68.0858C30.2506 69.5493 31.1168 70.8525 32.2817 71.85C32.42 71.9674 32.56 72.0811 32.7055 72.1894C33.7542 72.9753 34.9735 73.4996 36.2632 73.7193C37.5529 73.939 38.876 73.8477 40.1237 73.4529C41.3714 73.0582 42.508 72.3713 43.4399 71.4487C44.3719 70.5262 45.0726 69.3944 45.4844 68.1465C45.8961 66.8986 46.0071 65.5702 45.8083 64.2707C45.6095 62.9713 45.1065 61.7378 44.3408 60.6719C43.575 59.606 42.5684 58.7381 41.4037 58.1396C40.2391 57.5411 38.9497 57.2292 37.6416 57.2295V57.2295ZM37.6416 73.4785C35.9611 73.4803 34.3242 72.9406 32.9714 71.9385C32.8241 71.8301 32.6822 71.7182 32.5439 71.5991C31.409 70.6368 30.5669 69.3725 30.1142 67.9512C29.6615 66.5299 29.6166 65.0091 29.9845 63.5633C30.3524 62.1174 31.1183 60.8051 32.1943 59.7768C33.2704 58.7485 34.613 58.0459 36.0682 57.7495C36.2693 57.7079 36.4705 57.6754 36.6753 57.6502C36.9958 57.6103 37.3186 57.5904 37.6416 57.5906C39.7377 57.5906 41.748 58.4275 43.2302 59.9173C44.7124 61.4071 45.5451 63.4277 45.5451 65.5345C45.5451 67.6414 44.7124 69.662 43.2302 71.1518C41.748 72.6416 39.7377 73.4785 37.6416 73.4785Z" fill="#3F3D56"/>
<path d="M33.6776 63.9092H41.6069C41.8973 63.9092 42.1328 63.6725 42.1328 63.3805V63.3546C42.1328 63.0626 41.8973 62.8259 41.6069 62.8259H33.6776C33.3871 62.8259 33.1516 63.0626 33.1516 63.3546V63.3805C33.1516 63.6725 33.3871 63.9092 33.6776 63.9092Z" fill="#7274DB"/>
<path d="M33.6776 66.0752H41.6069C41.8973 66.0752 42.1328 65.8385 42.1328 65.5465V65.5206C42.1328 65.2286 41.8973 64.9919 41.6069 64.9919H33.6776C33.3871 64.9919 33.1516 65.2286 33.1516 65.5206V65.5465C33.1516 65.8385 33.3871 66.0752 33.6776 66.0752Z" fill="#7274DB"/>
<path d="M33.6776 68.2422H41.6069C41.8973 68.2422 42.1328 68.0055 42.1328 67.7135V67.6876C42.1328 67.3956 41.8973 67.1589 41.6069 67.1589H33.6776C33.3871 67.1589 33.1516 67.3956 33.1516 67.6876V67.7135C33.1516 68.0055 33.3871 68.2422 33.6776 68.2422Z" fill="#7274DB"/>
<path d="M128.074 101.578L125.765 101.578L124.666 92.626L128.074 92.6262L128.074 101.578Z" fill="#9E616A"/>
<path d="M117.15 101.578L114.841 101.578L113.742 92.626L117.15 92.6262L117.15 101.578Z" fill="#9E616A"/>
<path d="M117.232 104L110.131 104V103.91C110.131 103.173 110.422 102.466 110.94 101.945C111.459 101.424 112.162 101.132 112.895 101.132H112.895L114.192 100.143L116.612 101.132L117.232 101.132L117.232 104Z" fill="#2F2E41"/>
<path d="M128.45 104L121.35 104V103.91C121.35 103.173 121.641 102.466 122.159 101.945C122.677 101.424 123.38 101.132 124.113 101.132H124.114L125.411 100.143L127.831 101.132L128.45 101.132L128.45 104Z" fill="#2F2E41"/>
<path d="M114.884 48.5959L111.374 70.074L112.329 73.2746L111.076 75.5413L112.917 95.4486L112.169 97.1017L114.257 98.3956H118.504L118.729 80.3734L119.779 77.7274V76.2691L121.914 65.2795L122.308 80.6697L122.929 83.3199L122.407 85.2068L123.089 86.5288L124.9 98.7883H129.663L129.294 95.9361C129.709 95.725 130.042 95.3813 130.242 94.9591C130.441 94.5368 130.495 94.06 130.395 93.6035L130.122 92.3534L130.744 88.657L131.876 68.0354L131.556 51.3964L125.985 47.1143L114.884 48.5959Z" fill="#2F2E41"/>
<path d="M122.929 21.0161C125.372 21.0161 127.354 19.0249 127.354 16.5686C127.354 14.1123 125.372 12.1211 122.929 12.1211C120.485 12.1211 118.504 14.1123 118.504 16.5686C118.504 19.0249 120.485 21.0161 122.929 21.0161Z" fill="#9E616A"/>
<path d="M113.262 57.1201C113.454 56.9201 113.601 56.6802 113.691 56.4171C113.781 56.154 113.813 55.8742 113.784 55.5974C113.755 55.3206 113.666 55.0536 113.524 54.8151C113.381 54.5766 113.188 54.3724 112.958 54.217L114.679 47.6768L111.364 48.7975L110.238 54.8364C110.004 55.2416 109.926 55.719 110.018 56.1782C110.111 56.6374 110.368 57.0466 110.741 57.3281C111.113 57.6095 111.576 57.7439 112.04 57.7055C112.505 57.6672 112.94 57.4589 113.262 57.1201H113.262Z" fill="#9E616A"/>
<path d="M115.074 25.7187L114.362 25.5703L113.755 25.908C113.755 25.908 112.06 28.1798 112.06 30.2622C112.06 32.3447 109.988 52.4118 109.988 52.4118L113.755 54.1156L116.769 38.4027L115.074 25.7187Z" fill="#E6E6E6"/>
<path d="M126.806 13.3081C126.806 13.3081 127.963 11.0844 125.417 10.8822C125.417 10.8822 123.247 8.90314 121.034 10.5204C121.034 10.5204 119.827 10.5204 119.168 11.893C119.168 11.893 118.218 11.5312 118.01 12.4995C118.01 12.4995 117.315 14.5211 118.01 16.3405C118.704 18.16 118.935 18.3621 118.935 18.3621C118.935 18.3621 117.794 14.5476 120.572 14.3454C123.349 14.1433 126.458 12.3984 126.689 14.6222C126.921 16.8459 127.269 17.3938 127.269 17.3938C127.269 17.3938 129.468 14.2178 126.806 13.3081Z" fill="#2F2E41"/>
<path d="M142.967 75.5429C142.633 75.5433 142.311 75.4197 142.062 75.1958L128.671 63.2146C128.401 62.9726 128.238 62.6329 128.217 62.27C128.196 61.9071 128.319 61.5507 128.559 61.2789L137.138 51.5927C137.378 51.3214 137.716 51.1572 138.078 51.1361C138.439 51.115 138.793 51.2387 139.064 51.4801L152.455 63.4615C152.725 63.7033 152.888 64.043 152.909 64.406C152.93 64.7689 152.807 65.1254 152.567 65.397L143.988 75.0832C143.869 75.2181 143.725 75.328 143.564 75.4065C143.402 75.485 143.227 75.5305 143.048 75.5405C143.021 75.5422 142.994 75.5429 142.967 75.5429Z" fill="white"/>
<path d="M142.969 75.6301C142.614 75.6306 142.27 75.4991 142.006 75.2608L128.615 63.2796C128.327 63.022 128.154 62.6604 128.131 62.2742C128.109 61.888 128.24 61.5086 128.496 61.2194L137.074 51.5331C137.33 51.2445 137.69 51.0698 138.074 51.0474C138.458 51.0249 138.836 51.1565 139.124 51.4133L152.515 63.3947C152.802 63.6521 152.976 64.0136 152.999 64.4C153.021 64.7863 152.89 65.1657 152.634 65.4548L144.055 75.141C143.929 75.2846 143.775 75.4015 143.604 75.485C143.432 75.5685 143.246 75.617 143.055 75.6277C143.026 75.6292 142.998 75.6301 142.969 75.6301ZM138.159 51.3971C138.003 51.3968 137.85 51.4296 137.708 51.4935C137.566 51.5573 137.439 51.6507 137.336 51.7675L128.758 61.4537C128.564 61.6731 128.464 61.9609 128.481 62.2538C128.498 62.5467 128.63 62.821 128.848 63.0163L142.239 74.9975C142.347 75.0942 142.473 75.1685 142.609 75.2162C142.746 75.264 142.89 75.2842 143.035 75.2758C143.179 75.2673 143.32 75.2304 143.451 75.167C143.581 75.1037 143.697 75.0152 143.793 74.9066L152.372 65.2204C152.566 65.0012 152.665 64.7134 152.649 64.4204C152.632 64.1274 152.5 63.8532 152.281 63.658L138.89 51.6766C138.689 51.4962 138.429 51.3967 138.159 51.3971H138.159Z" fill="#3F3D56"/>
<path d="M147.823 66.3688C147.679 66.3691 147.539 66.3157 147.431 66.2189L136.92 56.814C136.862 56.7623 136.814 56.6996 136.78 56.6294C136.746 56.5592 136.726 56.4829 136.722 56.405C136.717 56.3271 136.728 56.249 136.753 56.1752C136.779 56.1015 136.818 56.0335 136.87 55.9752C136.922 55.9169 136.984 55.8694 137.054 55.8354C137.124 55.8015 137.2 55.7817 137.278 55.7773C137.355 55.7729 137.433 55.7839 137.506 55.8098C137.579 55.8356 137.647 55.8757 137.705 55.9278L148.216 65.3327C148.306 65.4127 148.369 65.5181 148.397 65.6349C148.426 65.7518 148.418 65.8745 148.375 65.9869C148.333 66.0994 148.257 66.1961 148.159 66.2643C148.06 66.3325 147.943 66.369 147.823 66.3688Z" fill="#FF5A5F"/>
<path d="M145.82 68.632C145.675 68.6322 145.536 68.5789 145.428 68.4821L134.916 59.0773C134.859 59.0254 134.811 58.9627 134.778 58.8926C134.744 58.8225 134.724 58.7463 134.72 58.6686C134.715 58.5908 134.726 58.5129 134.752 58.4393C134.777 58.3657 134.817 58.2979 134.868 58.2397C134.92 58.1816 134.982 58.1342 135.052 58.1002C135.122 58.0663 135.197 58.0465 135.275 58.042C135.352 58.0375 135.43 58.0484 135.503 58.0739C135.576 58.0995 135.643 58.1394 135.701 58.1912L146.213 67.5961C146.302 67.676 146.365 67.7814 146.394 67.8982C146.422 68.0151 146.415 68.1378 146.372 68.2502C146.329 68.3626 146.254 68.4594 146.155 68.5275C146.057 68.5957 145.94 68.6322 145.82 68.632H145.82Z" fill="#FF5A5F"/>
<path d="M143.813 70.8973C143.668 70.8975 143.529 70.8441 143.421 70.7472L132.909 61.3425C132.851 61.2907 132.804 61.228 132.77 61.1578C132.736 61.0877 132.716 61.0115 132.712 60.9337C132.707 60.8558 132.718 60.7779 132.744 60.7042C132.769 60.6306 132.809 60.5627 132.86 60.5045C132.912 60.4462 132.974 60.3988 133.044 60.3648C133.114 60.3309 133.19 60.3111 133.267 60.3066C133.345 60.3022 133.422 60.3131 133.496 60.3388C133.569 60.3644 133.636 60.4044 133.694 60.4563L144.206 69.8612C144.295 69.9411 144.358 70.0465 144.387 70.1633C144.415 70.2802 144.407 70.403 144.365 70.5154C144.322 70.6278 144.247 70.7245 144.148 70.7927C144.049 70.8609 143.933 70.8974 143.813 70.8973H143.813Z" fill="#FF5A5F"/>
<path d="M131.793 57.5057C131.658 57.2626 131.578 56.9928 131.558 56.7152C131.538 56.4376 131.579 56.159 131.677 55.899C131.776 55.6391 131.93 55.404 132.129 55.2104C132.328 55.0169 132.567 54.8695 132.829 54.7787L132.84 48.0137L135.757 49.954L135.299 56.0807C135.421 56.5328 135.375 57.0143 135.168 57.4341C134.961 57.854 134.608 58.1828 134.175 58.3585C133.743 58.5341 133.262 58.5443 132.823 58.3872C132.384 58.23 132.017 57.9163 131.793 57.5057H131.793Z" fill="#9E616A"/>
<path d="M132.063 27.5729L133.366 26.3105L134.323 27.0049C134.323 27.0049 135.264 28.1408 136.018 31.5484C136.771 34.9561 136.018 53.698 136.018 53.698L131.874 53.1301L132.439 43.2858L130.744 34.9561L132.063 27.5729Z" fill="#E6E6E6"/>
<path d="M133.986 26.6185L129.596 24.5109L126.616 21.7323L121.181 21.6914L119.428 23.9822L114.8 25.5625L115.571 41.6039L115.045 42.8374C115.045 42.8374 115.411 43.1702 115.579 43.3562C115.746 43.5423 115.348 45.1002 115.348 45.1002L115.123 46.795L115.746 47.2429L114.936 48.2054L114.734 49.7226C114.734 49.7226 128.885 46.1873 131.559 52.0438C131.7 52.3532 131.352 49.3291 131.352 49.3291L131.005 47.1153L131.35 45.1283L131.876 44.5996L130.993 43.713L131.559 39.506L133.986 26.6185Z" fill="#3F3D56"/>
<path d="M34.4341 62.1807C34.543 61.9027 34.59 61.604 34.5717 61.3057C34.5533 61.0075 34.4702 60.7169 34.328 60.4544C34.1859 60.192 33.9882 59.964 33.749 59.7866C33.5097 59.6093 33.2347 59.4868 32.9432 59.4278L31.9681 52.2305L29.1406 54.7147L30.5001 61.1686C30.434 61.6673 30.5522 62.173 30.8323 62.59C31.1124 63.0069 31.5349 63.3062 32.0198 63.4309C32.5047 63.5557 33.0183 63.4973 33.4633 63.2669C33.9082 63.0365 34.2536 62.65 34.4341 62.1807V62.1807Z" fill="#FFB8B8"/>
<path d="M23.3561 30.2969L22.5897 30.4444L22.1265 31.0306C22.1265 31.0306 21.377 33.9852 22.2308 36.0499C23.0845 38.1147 29.2568 58.8695 29.2568 58.8695L33.6903 58.9987L30.2366 42.171L23.3561 30.2969Z" fill="#3F3D56"/>
<path d="M40.8345 61.1256C40.6303 60.9085 40.4759 60.6489 40.3823 60.3653C40.2887 60.0817 40.258 59.7809 40.2925 59.4841C40.3271 59.1873 40.4259 58.9017 40.5821 58.6475C40.7384 58.3932 40.9481 58.1765 41.1967 58.0126L39.4316 50.9688L42.9767 52.2142L44.1093 58.7122C44.3557 59.1502 44.4336 59.6637 44.3284 60.1556C44.2232 60.6475 43.9421 61.0834 43.5384 61.3809C43.1348 61.6784 42.6366 61.8167 42.1382 61.7697C41.6399 61.7226 41.176 61.4935 40.8345 61.1256Z" fill="#FFB8B8"/>
<path d="M39.2843 27.3886L40.0502 27.2383L40.6975 27.6086C40.6975 27.6086 42.4888 30.0692 42.4626 32.305C42.4364 34.5408 44.4082 56.1122 44.4082 56.1122L40.3424 57.8936L37.3047 40.9851L39.2843 27.3886Z" fill="#3F3D56"/>
</g>
<defs>
<clipPath id="clip0_1048_186">
<rect width="153" height="104" fill="white"/>
</clipPath>
</defs>
</svg>
