<svg width="109" height="98" viewBox="0 0 109 98" fill="none" xmlns="http://www.w3.org/2000/svg">
<path d="M108.043 37.4772C108.004 37.4772 107.966 37.4652 107.934 37.4429L55.0479 0.553915C54.887 0.442178 54.6957 0.382463 54.4999 0.382797C54.3041 0.383132 54.113 0.443499 53.9524 0.555785L1.44758 37.4425C1.40605 37.4717 1.35465 37.4831 1.30469 37.4743C1.25473 37.4655 1.21029 37.4372 1.18116 37.3957C1.15203 37.3541 1.1406 37.3026 1.14936 37.2525C1.15813 37.2025 1.18639 37.158 1.22792 37.1288L53.7328 0.242121C53.9576 0.0849435 54.2251 0.000453082 54.4993 1.81714e-06C54.7734 -0.000449448 55.0412 0.0831593 55.2665 0.239596L108.152 37.1284C108.186 37.1518 108.211 37.1851 108.224 37.2237C108.237 37.2623 108.238 37.3041 108.225 37.343C108.213 37.382 108.189 37.4159 108.156 37.4401C108.123 37.4642 108.084 37.4772 108.043 37.4772L108.043 37.4772Z" fill="#3F3D56"/>
<path d="M4 38.7842L54.104 1.59277L104.588 41.4306L56.6856 69.8725L30.6786 63.9351L4 38.7842Z" fill="#E6E6E6"/>
<path d="M33.3226 87.4405H8.57002C8.41803 87.4407 8.2675 87.4109 8.12702 87.3528C7.98654 87.2947 7.85889 87.2094 7.75135 87.1018C7.6438 86.9942 7.55849 86.8665 7.50028 86.7259C7.44207 86.5852 7.41211 86.4345 7.41211 86.2823C7.41211 86.13 7.44207 85.9793 7.50028 85.8387C7.55849 85.6981 7.6438 85.5703 7.75135 85.4627C7.85889 85.3552 7.98654 85.2699 8.12702 85.2118C8.2675 85.1536 8.41803 85.1238 8.57002 85.124H33.3226C33.4746 85.1238 33.6252 85.1536 33.7656 85.2118C33.9061 85.2699 34.0338 85.3552 34.1413 85.4627C34.2489 85.5703 34.3342 85.6981 34.3924 85.8387C34.4506 85.9793 34.4806 86.13 34.4806 86.2823C34.4806 86.4345 34.4506 86.5852 34.3924 86.7259C34.3342 86.8665 34.2489 86.9942 34.1413 87.1018C34.0338 87.2094 33.9061 87.2947 33.7656 87.3528C33.6252 87.4109 33.4746 87.4407 33.3226 87.4405Z" fill="#11A598"/>
<path d="M17.4507 82.46H8.57002C8.41803 82.4602 8.2675 82.4304 8.12702 82.3723C7.98654 82.3142 7.85889 82.2289 7.75135 82.1213C7.6438 82.0137 7.55849 81.886 7.50028 81.7454C7.44207 81.6048 7.41211 81.454 7.41211 81.3018C7.41211 81.1496 7.44207 80.9988 7.50028 80.8582C7.55849 80.7176 7.6438 80.5898 7.75135 80.4823C7.85889 80.3747 7.98654 80.2894 8.12702 80.2313C8.2675 80.1732 8.41803 80.1434 8.57002 80.1436H17.4507C17.6027 80.1434 17.7532 80.1732 17.8937 80.2313C18.0342 80.2894 18.1618 80.3747 18.2694 80.4823C18.3769 80.5898 18.4623 80.7176 18.5205 80.8582C18.5787 80.9988 18.6086 81.1496 18.6086 81.3018C18.6086 81.454 18.5787 81.6048 18.5205 81.7454C18.4623 81.886 18.3769 82.0137 18.2694 82.1213C18.1618 82.2289 18.0342 82.3142 17.8937 82.3723C17.7532 82.4304 17.6027 82.4602 17.4507 82.46Z" fill="#11A598"/>
<path d="M55.2579 59.4995C55.0698 59.4997 54.8834 59.4631 54.7093 59.3918L23.8086 46.5501V6.35339C23.809 5.99794 23.9502 5.65717 24.2011 5.40583C24.4521 5.15449 24.7923 5.01311 25.1472 5.0127H84.4279C84.7828 5.01311 85.123 5.15449 85.374 5.40583C85.6249 5.65717 85.7661 5.99794 85.7665 6.35339V46.5782L85.7084 46.603L55.8232 59.3856C55.6443 59.4609 55.4521 59.4996 55.2579 59.4995Z" fill="white"/>
<path d="M55.2579 59.5952C55.0572 59.5954 54.8585 59.5565 54.6728 59.4806L23.7129 46.6141V6.35345C23.7133 5.97261 23.8646 5.60749 24.1334 5.3382C24.4023 5.0689 24.7669 4.91742 25.1471 4.91699H84.4278C84.808 4.91742 85.1726 5.0689 85.4415 5.3382C85.7103 5.60749 85.8616 5.97261 85.862 6.35345V46.6415L55.8607 59.4736C55.6699 59.5541 55.4649 59.5954 55.2579 59.5952ZM24.0953 46.3583L54.8186 59.1264C55.1052 59.2429 55.4261 59.2409 55.7113 59.1211L85.4796 46.3886V6.35345C85.4792 6.07417 85.3683 5.80643 85.1712 5.60895C84.974 5.41147 84.7066 5.30038 84.4278 5.30005H25.1471C24.8683 5.30038 24.6009 5.41147 24.4038 5.60895C24.2066 5.80643 24.0957 6.07417 24.0954 6.35345L24.0953 46.3583Z" fill="#3F3D56"/>
<path d="M107.661 37.0938H107.623L85.6702 46.4825L55.634 59.3282C55.5167 59.3777 55.3907 59.4035 55.2634 59.4041C55.1361 59.4048 55.0098 59.3803 54.892 59.3321L23.9035 46.4556L1.41124 37.1091L1.37688 37.0938H1.3386C0.9837 37.0941 0.64345 37.2355 0.3925 37.4869C0.141549 37.7382 0.000393787 38.079 0 38.4344V96.6589C0.000394292 97.0144 0.141549 97.3552 0.3925 97.6065C0.64345 97.8578 0.9837 97.9992 1.3386 97.9996H107.661C108.016 97.9992 108.357 97.8578 108.607 97.6065C108.858 97.3552 109 97.0144 109 96.6589V38.4344C109 38.079 108.858 37.7382 108.607 37.4869C108.357 37.2355 108.016 37.0941 107.661 37.0938ZM108.618 96.6589C108.617 96.9129 108.517 97.1564 108.337 97.336C108.158 97.5155 107.915 97.6165 107.661 97.6166H1.3386C1.08504 97.6165 0.841905 97.5155 0.662616 97.336C0.483327 97.1564 0.382558 96.9129 0.382456 96.6589V38.4344C0.382803 38.1868 0.478713 37.9489 0.650133 37.7704C0.821554 37.5919 1.05522 37.4867 1.30227 37.4768L23.9035 46.8693L54.7448 59.6864C55.0787 59.8224 55.4528 59.8204 55.7851 59.6806L85.6702 46.8981L107.7 37.4768C107.946 37.4875 108.179 37.593 108.35 37.7713C108.521 37.9497 108.617 38.1872 108.618 38.4344V96.6589Z" fill="#3F3D56"/>
<path d="M54.9486 48.1016C53.8079 48.1037 52.6974 47.7343 51.7846 47.0489L51.728 47.0064L39.8124 37.8691C39.2606 37.4456 38.7974 36.9174 38.4494 36.3146C38.1014 35.7119 37.8753 35.0464 37.7841 34.3561C37.6928 33.6658 37.7382 32.9643 37.9177 32.2916C38.0972 31.619 38.4071 30.9883 38.83 30.4356C39.2528 29.8829 39.7801 29.419 40.382 29.0704C40.9838 28.7218 41.6482 28.4954 42.3374 28.404C43.0266 28.3127 43.727 28.3581 44.3986 28.5379C45.0703 28.7176 45.7 29.0281 46.2518 29.4516L53.9699 35.3789L72.2088 11.5554C72.6318 11.0028 73.1593 10.5391 73.7613 10.1908C74.3632 9.84242 75.0278 9.61621 75.717 9.52509C76.4062 9.43397 77.1066 9.47971 77.7781 9.6597C78.4497 9.83969 79.0793 10.1504 79.631 10.5741L79.5176 10.7283L79.6339 10.5763C80.7468 11.433 81.4749 12.6967 81.6586 14.0904C81.8422 15.484 81.4665 16.8937 80.6137 18.0102L59.1603 46.0324C58.6642 46.6781 58.0261 47.2007 57.2957 47.5595C56.5653 47.9184 55.7622 48.1039 54.9486 48.1016Z" fill="#11A598"/>
</svg>
